<svg width="50" height="50" viewBox="0 0 50 50" fill="none" xmlns="http://www.w3.org/2000/svg">
<g clip-path="url(#clip0)">
<path d="M49.1346 5.88896C48.414 3.62299 47.4375 2.00053 47.3961 1.93234C47.236 1.66843 46.9063 1.53114 46.6077 1.59963C46.5304 1.61729 44.6863 2.04771 42.5592 3.11008C39.6874 4.54381 37.6814 6.45789 36.7573 8.64441C35.988 10.4653 35.8775 12.6914 36.4233 15.1507C35.2608 13.8524 33.9531 12.7167 32.5276 11.7606C32.0923 10.9006 30.9413 8.78353 29.142 6.57083C28.5494 5.84239 27.4094 6.75651 28.0081 7.49225C29.2206 8.98352 30.1332 10.4501 30.7039 11.4577L24.0488 10.1603L17.7257 1.53571C18.3397 1.54423 18.9558 1.60359 19.5689 1.72383C21.5125 2.10433 23.4324 3.09425 25.2761 4.66557C25.9985 5.28138 26.9366 4.16057 26.2237 3.55329C24.187 1.81758 22.0424 0.719301 19.8495 0.289789C16.502 -0.365284 12.5978 0.494652 8.55773 2.77767C5.54659 4.47928 3.53297 6.34831 3.44895 6.42684C3.17955 6.67858 3.13663 7.1358 3.3622 7.42985C3.65747 8.03561 4.77645 10.2209 6.63909 12.5736C7.73707 13.9608 8.89501 15.148 10.0928 16.1236C9.75251 16.4088 9.42132 16.7071 9.10079 17.021C7.38883 18.6955 6.07807 20.6707 5.21753 22.8302C4.45683 24.7382 4.04771 26.7907 4.02488 28.9063C3.98713 32.3659 4.98953 35.7024 6.92431 38.5559C8.81435 41.343 11.4566 43.4829 14.5651 44.7441C15.4351 45.0963 15.9851 43.7432 15.1146 43.3901C13.9883 42.9332 12.9302 42.3478 11.9543 41.6517C12.0791 40.9594 12.3685 38.4682 10.7138 35.8893C10.4822 35.5286 11.1747 34.1119 11.5881 33.2657C12.0148 32.3936 12.4553 31.4919 12.6611 30.643C12.8796 29.741 12.6337 28.984 11.9503 28.4528C11.4486 28.0628 10.792 27.861 10.2134 27.6829C9.83744 27.5673 9.41128 27.4364 9.25908 27.3094C8.94554 27.0467 8.43354 26.076 8.02199 25.2964C7.56538 24.4316 7.1307 23.6085 6.68688 23.1017C7.68562 20.7298 9.28982 18.6309 11.2989 17.0252C13.1341 18.2754 15.2287 19.1381 17.4551 19.3128C14.8732 21.3133 14.0379 23.8682 15.2318 26.3223C16.6259 29.1879 19.4955 28.7301 22.0272 28.3268C22.4653 28.2567 22.9185 28.1846 23.3526 28.1304C23.5155 28.11 23.5645 28.1545 23.5973 28.1834C24.1517 28.6765 24.1352 31.0317 24.1233 32.7516C24.1072 35.1305 24.092 37.3776 24.9781 38.5312C25.4301 39.1193 26.0666 39.4201 26.8127 39.4201C27.2599 39.4201 27.7457 39.3123 28.2553 39.0938C30.4589 38.1501 32.7495 35.3101 32.4 33.063C32.0947 31.0983 31.8926 29.8004 32.369 28.7541C32.8095 27.7858 33.8743 26.8894 35.9713 25.7454C36.2224 26.8763 36.349 28.0528 36.336 29.2598C36.2912 33.3795 34.6444 37.2354 31.6993 40.1166C28.4078 43.3365 23.7818 44.9267 19.2057 44.4223C18.2733 44.3213 18.1123 45.7721 19.0459 45.8749C24.0549 46.4265 29.1192 44.6853 32.7209 41.1613C35.9454 38.0067 37.7481 33.7859 37.7971 29.2753C37.8622 23.2947 34.7936 17.9963 30.1222 14.944C31.0875 14.2558 31.8065 13.6607 32.2052 13.3152C33.9084 14.537 35.4191 16.0423 36.676 17.796C39.6932 22.0068 40.8898 27.1399 40.046 32.2508C38.3033 42.8011 28.3028 49.9676 17.7507 48.2243C12.6395 47.3802 8.16323 44.5968 5.14599 40.386C2.12845 36.1755 0.931848 31.0417 1.77596 25.9311C1.92755 25.0115 0.486812 24.7701 0.334611 25.6931C-0.573421 31.1891 0.713896 36.7094 3.95791 41.2374C7.20253 45.7647 12.0167 48.7582 17.5126 49.6663C18.6621 49.8559 19.8127 49.9497 20.9554 49.9497C25.2749 49.9497 29.4769 48.6085 33.0575 46.0427C37.5861 42.798 40.5799 37.9848 41.4874 32.4889C42.1525 28.4616 41.6377 24.4213 40.039 20.7678C40.7769 20.5502 42.0325 20.1277 43.4078 19.441C46.279 18.0072 48.2853 16.0931 49.2091 13.9066C50.1339 11.7195 50.108 8.94699 49.1346 5.88896ZM6.72949 25.9783C7.27316 27.009 7.78729 27.9831 8.32152 28.43C8.69989 28.7462 9.22651 28.9082 9.78387 29.0795C11.2118 29.5185 11.3777 29.734 11.2407 30.2987C11.0727 30.993 10.6672 31.8222 10.2755 32.6237C9.52086 34.1676 8.80826 35.6251 9.48373 36.6783C10.4417 38.1711 10.6058 39.6408 10.5893 40.5549C6.23758 36.6309 4.46565 30.4329 6.0866 24.7997C6.3015 25.168 6.52737 25.596 6.72949 25.9783ZM42.0782 11.6206L40.0019 6.58878C41.0122 5.64392 42.1844 4.93284 43.1829 4.4321C44.0334 4.00532 44.8425 3.68631 45.4915 3.46014L42.0782 11.6206ZM46.8385 4.02663C47.1285 4.65005 47.4649 5.45397 47.7523 6.36261C48.0673 7.35984 48.3565 8.59571 48.414 9.88485L43.5482 11.8924L46.8385 4.02663ZM38.103 9.21334C38.3185 8.70377 38.5971 8.23134 38.9188 7.79513L41.2825 13.5225L39.1614 18.5944C38.8634 17.9622 38.5124 17.1318 38.2147 16.1884C37.6172 14.2996 37.1131 11.5557 38.103 9.21334ZM42.7838 18.1189C41.9653 18.5299 41.1842 18.841 40.548 19.0653L42.7491 13.8031L48.3519 11.4912C48.2707 12.1189 48.1157 12.7411 47.8634 13.3377C46.8738 15.6801 44.5548 17.231 42.7838 18.1189ZM16.4387 17.7031C16.1806 17.6526 15.9258 17.5908 15.6747 17.5205L23.7608 11.5932L30.419 12.8908C27.9935 14.8019 22.0908 18.8105 16.4387 17.7031ZM9.04873 13.1319C7.31943 11.2681 6.05189 9.27514 5.32407 7.99908L13.7971 9.65107L9.04873 13.1319ZM10.5452 3.38404L14.0902 8.21947L5.56242 6.55713C6.63604 5.70937 8.40827 4.43666 10.5452 3.38404ZM16.204 8.63163L11.9062 2.76915C13.1929 2.2404 14.5739 1.82428 15.9897 1.6392L21.9353 9.74848L16.204 8.63163ZM15.7492 10.0316L21.809 11.2127L14.0318 16.9132C12.5652 16.2359 11.2453 15.2621 10.0904 14.1797L15.7492 10.0316ZM35.5743 24.2989C32.9404 25.7022 31.6506 26.8044 31.0388 28.149C30.3815 29.5928 30.6223 31.1425 30.9557 33.2873C31.1526 34.5521 29.6495 36.9072 27.68 37.7508C26.9512 38.0628 26.4322 38.0259 26.1367 37.6409C25.5562 36.8853 25.572 34.5987 25.5845 32.7616C25.6018 30.2198 25.617 28.0248 24.5684 27.0918C24.1912 26.7563 23.7087 26.6145 23.1727 26.6802C22.7134 26.7375 22.2473 26.8118 21.7971 26.8836C19.1114 27.3116 17.4213 27.483 16.5459 25.683C15.1273 22.7678 17.9988 20.6083 19.2992 19.8154C19.564 19.654 19.8097 19.4638 20.038 19.2519C23.1809 18.8763 26.1507 17.5278 28.7971 15.8387C31.9702 17.7345 34.4061 20.7347 35.5743 24.2989Z" fill="#7D58E7"/>
</g>
<defs>
<clipPath id="clip0">
<rect width="49.922" height="50" fill="white"/>
</clipPath>
</defs>
</svg>
