<svg width="40" height="40" viewBox="0 0 40 40" fill="none" xmlns="http://www.w3.org/2000/svg">
<path d="M39.9991 18.6671C39.9999 16.9091 39.229 15.2394 37.8905 14.0998C38.4006 13.2676 38.6691 12.3099 38.6658 11.3338C38.6623 8.62954 36.6381 6.35449 33.9525 6.03657C33.9837 5.80366 33.9994 5.56891 33.9992 5.33392C34.0061 2.39504 31.6293 0.00707826 28.6904 0.000161694C26.9611 -0.00392158 25.3377 0.83265 24.3373 2.2433C22.6397 -0.152503 19.3213 -0.718411 16.9255 0.979231C16.4359 1.32623 16.0085 1.75364 15.6615 2.2433C13.9544 -0.151669 10.6291 -0.709328 8.23416 0.997647C6.62794 2.14246 5.78611 4.08135 6.04628 6.03657C3.36073 6.35449 1.33651 8.62954 1.33301 11.3338C1.32968 12.3099 1.59818 13.2676 2.10834 14.0998C-0.413711 16.2491 -0.715873 20.036 1.43343 22.5581C1.64009 22.8007 1.86584 23.0263 2.10834 23.233C1.59793 24.0656 1.32943 25.0237 1.33301 26.0003C1.33635 28.9444 3.72214 31.3302 6.66627 31.3335H10.6662V38.6668H8.66624C8.29808 38.6668 7.99958 38.9653 7.99958 39.3334C7.99958 39.7016 8.29808 40.0001 8.66624 40.0001H31.3326C31.7007 40.0001 31.9992 39.7016 31.9992 39.3334C31.9992 38.9653 31.7007 38.6668 31.3326 38.6668H29.3326V31.3335H33.3325C36.2767 31.3302 38.6625 28.9444 38.6658 26.0003C38.6691 25.0242 38.4006 24.0665 37.8905 23.2343C39.229 22.0947 39.9998 20.4249 39.9991 18.6671ZM6.66627 29.9942C4.46038 29.9921 2.67183 28.2062 2.66633 26.0003C2.66374 25.0936 2.97274 24.2136 3.54165 23.5077C3.77139 23.22 3.72448 22.8005 3.43682 22.5707C3.4229 22.5595 3.40848 22.5489 3.39365 22.539C1.25526 21.1004 0.687939 18.2006 2.1265 16.0622C2.46308 15.5619 2.89332 15.1316 3.39365 14.7951C3.69881 14.5892 3.77931 14.1748 3.57331 13.8696C3.56331 13.8548 3.55273 13.8405 3.54165 13.8265C2.97274 13.1205 2.66374 12.2405 2.66633 11.3338C2.66849 9.12561 4.45805 7.33606 6.66627 7.33389L6.83893 7.34322C7.05451 7.35397 7.26143 7.25739 7.39159 7.08523C7.52409 6.91523 7.56559 6.6914 7.50292 6.48523C6.87843 4.36626 8.09 2.14221 10.2091 1.51772C12.0928 0.962564 14.1008 1.85705 14.9481 3.62861C14.9481 3.63528 14.9481 3.64194 14.9435 3.64861C14.8604 3.89852 14.7962 4.15435 14.7515 4.41393C14.7435 4.4586 14.7375 4.50393 14.7308 4.54726C14.6511 5.03942 14.645 5.54066 14.7128 6.03457C12.0265 6.35265 10.0021 8.6287 9.99955 11.3338C9.99622 12.3099 10.2647 13.2676 10.7749 14.0998C10.7629 14.1105 10.7529 14.1218 10.7409 14.1325L7.63759 11.0292C7.37276 10.7734 6.95068 10.7808 6.69493 11.0456C6.44544 11.3039 6.44544 11.7135 6.69493 11.9718L9.83622 15.1131C7.96767 17.6466 8.37766 21.1939 10.7749 23.2343C10.5176 23.6539 10.321 24.1076 10.1909 24.5823L7.80425 22.1957C7.53942 21.9398 7.11743 21.9472 6.8616 22.212C6.6121 22.4703 6.6121 22.8799 6.8616 23.1383L10.0142 26.2909C10.0196 26.3836 10.0209 26.4769 10.0309 26.5676C10.0376 26.6303 10.0502 26.6903 10.0589 26.7516C10.0762 26.8749 10.0936 26.9976 10.1196 27.1183C10.1349 27.1903 10.1562 27.2596 10.1742 27.3303C10.2016 27.4369 10.2289 27.5443 10.2629 27.6483C10.2869 27.7223 10.3155 27.7929 10.3429 27.8656C10.3795 27.9629 10.4162 28.0609 10.4589 28.1556C10.4909 28.2276 10.5255 28.2976 10.5609 28.3676C10.6062 28.4589 10.6529 28.5489 10.7029 28.6342C10.7422 28.7009 10.7842 28.7676 10.8269 28.8342C10.8802 28.9189 10.9349 29.0016 10.9929 29.0822C11.0389 29.1489 11.0869 29.2109 11.1362 29.2736C11.1969 29.3522 11.2602 29.4276 11.3255 29.5022C11.3782 29.5622 11.4315 29.6216 11.4862 29.6789C11.5529 29.7509 11.6269 29.8196 11.7002 29.8876C11.7369 29.9222 11.7709 29.9609 11.8089 29.9942H6.66627ZM19.3328 38.6668H11.9995V31.3335H19.3328V38.6668ZM19.9994 8.6672C19.6312 8.6672 19.3328 8.9657 19.3328 9.33386V14.0578L16.3041 11.0292C16.0393 10.7734 15.6172 10.7808 15.3615 11.0456C15.112 11.3039 15.112 11.7135 15.3615 11.9718L19.3328 15.9431V25.0576L16.4708 22.1957C16.206 21.9398 15.784 21.9472 15.5281 22.212C15.2786 22.4703 15.2786 22.8799 15.5281 23.1383L19.3328 26.9429V30.0002H15.3328C13.1246 29.9981 11.335 28.2085 11.3329 26.0003C11.3303 25.0936 11.6393 24.2136 12.2082 23.5077C12.4379 23.22 12.391 22.8005 12.1034 22.5707C12.0894 22.5595 12.075 22.5489 12.0602 22.539C9.9218 21.1004 9.35448 18.2006 10.793 16.0622C11.1296 15.5619 11.5599 15.1316 12.0602 14.7951C12.3654 14.5892 12.4459 14.1748 12.2399 13.8696C12.2299 13.8548 12.2193 13.8405 12.2082 13.8265C11.6393 13.1205 11.3303 12.2405 11.3329 11.3338C11.335 9.12561 13.1246 7.33606 15.3328 7.33389L15.5055 7.34322C15.7213 7.35522 15.9287 7.25839 16.0581 7.08523C16.1906 6.91523 16.2321 6.6914 16.1695 6.48523C16.0571 6.11174 15.9998 5.72391 15.9995 5.33392C15.9998 5.08784 16.0233 4.84234 16.0695 4.6006C16.0695 4.59126 16.0695 4.58126 16.0735 4.57193C16.1218 4.33127 16.1916 4.09544 16.2821 3.86727C16.884 2.34004 18.3578 1.33564 19.9994 1.33398C21.641 1.33564 23.1148 2.34004 23.7167 3.86727C23.8074 4.09694 23.8773 4.33435 23.9254 4.5766C23.9254 4.58593 23.9253 4.59593 23.9293 4.60526C23.9753 4.84543 23.9987 5.08942 23.9993 5.33392C23.999 5.72391 23.9417 6.11174 23.8294 6.48523C23.7667 6.6914 23.8082 6.91523 23.9407 7.08523C24.0706 7.25772 24.2777 7.35439 24.4933 7.34322L24.666 7.33389C26.8742 7.33606 28.6638 9.12561 28.6659 11.3338C28.6685 12.2405 28.3595 13.1205 27.7906 13.8265C27.5609 14.1141 27.6078 14.5336 27.8955 14.7634C27.9094 14.7746 27.9238 14.7852 27.9386 14.7951C30.077 16.2338 30.6443 19.1335 29.2057 21.2719C28.8691 21.7722 28.4389 22.2025 27.9386 22.539C27.6335 22.7449 27.553 23.1593 27.759 23.4645C27.769 23.4793 27.7795 23.4937 27.7906 23.5077C28.3595 24.2136 28.6685 25.0936 28.6659 26.0003C28.6638 28.2085 26.8742 29.9981 24.666 30.0002H20.6661V20.897C20.7158 20.8724 20.7622 20.8415 20.8041 20.805L25.1373 16.4718C25.3932 16.2069 25.3858 15.7849 25.121 15.5291C24.8627 15.2796 24.4531 15.2796 24.1947 15.5291L20.6661 19.0577V9.33386C20.6661 8.96562 20.3676 8.6672 19.9994 8.6672ZM27.9993 38.6668H20.6661V31.3335H27.9993V38.6668ZM36.4254 23.4645C36.4354 23.4793 36.446 23.4937 36.4571 23.5077C37.026 24.2136 37.335 25.0936 37.3324 26.0003C37.3302 28.2085 35.5407 29.9981 33.3325 30.0002H28.19C28.228 29.9669 28.262 29.9282 28.2986 29.8936C28.372 29.8269 28.4433 29.7569 28.5126 29.6849C28.5673 29.6276 28.6206 29.5682 28.6733 29.5082C28.7399 29.4336 28.8019 29.3582 28.8626 29.2796C28.9119 29.2169 28.9599 29.1536 29.0059 29.0882C29.0639 29.0076 29.1186 28.9249 29.1719 28.8402C29.2146 28.7736 29.2566 28.7069 29.2959 28.6402C29.3459 28.5522 29.3926 28.4623 29.4379 28.3736C29.4726 28.3036 29.5046 28.2336 29.5399 28.1616C29.5826 28.0669 29.6193 27.9689 29.6559 27.8716C29.6833 27.7989 29.7119 27.7283 29.7359 27.6543C29.7699 27.5503 29.7973 27.4429 29.8246 27.3363C29.8426 27.2656 29.8639 27.1963 29.8793 27.1243C29.9053 27.0036 29.9226 26.8809 29.9399 26.7576C29.9486 26.6963 29.9613 26.6363 29.9679 26.5736C29.9887 26.3832 29.9992 26.1918 29.9993 26.0003C30.0026 25.0242 29.7341 24.0665 29.2239 23.2343C30.4822 22.1596 31.2397 20.612 31.3166 18.9591L33.8039 16.4718C34.0597 16.2069 34.0524 15.7849 33.7875 15.5291C33.5292 15.2796 33.1196 15.2796 32.8612 15.5291L31.1539 17.2364C30.8554 16.0153 30.1802 14.9191 29.2239 14.1031C29.7347 13.2701 30.0032 12.3111 29.9993 11.3338C29.9958 8.62954 27.9715 6.35449 25.286 6.03657C25.3532 5.54258 25.3464 5.04126 25.266 4.54926C25.2593 4.50393 25.2533 4.4586 25.2453 4.41593C25.2007 4.15635 25.1364 3.90052 25.0533 3.65061C25.0533 3.64394 25.0533 3.63728 25.0487 3.63061C26.0019 1.63772 28.3901 0.7949 30.383 1.74814C32.1546 2.59546 33.049 4.60359 32.4939 6.48723C32.4312 6.6934 32.4727 6.91723 32.6052 7.08723C32.7354 7.25939 32.9423 7.35597 33.1579 7.34522L33.3325 7.33389C35.5408 7.33606 37.3303 9.12561 37.3325 11.3338C37.3351 12.2405 37.0261 13.1205 36.4572 13.8265C36.2274 14.1141 36.2743 14.5336 36.562 14.7634C36.5759 14.7746 36.5903 14.7852 36.6052 14.7951C38.7435 16.2338 39.3109 19.1335 37.8722 21.2719C37.5356 21.7722 37.1054 22.2025 36.6052 22.539C36.2999 22.7449 36.2195 23.1593 36.4254 23.4645Z" fill="#00BD57"/>
</svg>
