<svg width="50" height="50" viewBox="0 0 50 50" fill="none" xmlns="http://www.w3.org/2000/svg">
<g clip-path="url(#clip0)">
<path d="M24.168 0H25.8346V1.66667H24.168V0Z" fill="#729A1C"/>
<path d="M41.6667 48.3334V44.1667H42.5C46.18 44.1626 49.1626 41.1801 49.1667 37.5001C49.1667 37.0398 48.7935 36.6667 48.3333 36.6667H46.6667C44.2399 36.6683 42.0056 37.9883 40.8333 40.1136C39.661 37.9883 37.4268 36.6683 35 36.6667H33.3333C32.8731 36.6667 32.5 37.0398 32.5 37.5001C32.5041 41.1801 35.4867 44.1626 39.1667 44.1667H40V48.3334H25.8333V39.1667H26.6667C30.3467 39.1627 33.3293 36.1801 33.3333 32.5001C33.3333 32.0399 32.9602 31.6667 32.5 31.6667H30.8333C29.965 31.6659 29.1044 31.8356 28.3016 32.1668C28.3228 32.0008 28.3333 31.834 28.3333 31.6667C28.3333 28.9775 25.614 26.9166 25.5001 26.8336C25.2039 26.611 24.7961 26.611 24.4999 26.8336C24.3844 26.9166 21.6667 28.9791 21.6667 31.6667C21.6667 31.834 21.6772 32.0008 21.6984 32.1668C20.8956 31.8356 20.035 31.6659 19.1667 31.6667H17.5C17.0398 31.6667 16.6667 32.0399 16.6667 32.5001C16.6707 36.1801 19.6533 39.1627 23.3333 39.1667H24.1667V41.6883C23.4497 41.1369 22.5712 40.8366 21.6667 40.8334H20C19.5398 40.8334 19.1667 41.2065 19.1667 41.6667C19.1695 43.9669 21.0331 45.8305 23.3333 45.8334H24.1667V48.3334H10V44.1667H10.8333C14.5133 44.1626 17.4959 41.1801 17.5 37.5001C17.5 37.0398 17.1269 36.6667 16.6667 36.6667H15C12.5732 36.6683 10.3389 37.9883 9.16667 40.1136C7.99438 37.9883 5.76009 36.6683 3.33333 36.6667H1.66667C1.20646 36.6667 0.833333 37.0398 0.833333 37.5001C0.837402 41.1801 3.81999 44.1626 7.5 44.1667H8.33333V48.3334H0V50H50V48.3334H41.6667ZM46.6667 38.3334H47.4308C47.0211 40.7378 44.939 42.4968 42.5 42.5001H41.7358C42.1456 40.0957 44.2277 38.3366 46.6667 38.3334ZM39.1667 42.5001C36.7277 42.4968 34.6456 40.7378 34.2358 38.3334H35C37.439 38.3366 39.5211 40.0957 39.9308 42.5001H39.1667ZM23.3333 44.1667C22.2742 44.1655 21.3302 43.4982 20.9757 42.5001H21.6667C22.7258 42.5013 23.6698 43.1686 24.0243 44.1667H23.3333ZM31.5975 33.3334C31.1877 35.7378 29.1056 37.4968 26.6667 37.5001H25.9025C26.3123 35.0957 28.3944 33.3366 30.8333 33.3334H31.5975ZM25 28.6036C25.9216 29.3779 26.5169 30.4721 26.6667 31.6667C26.5202 32.8622 25.9245 33.9576 25 34.7299C24.0784 33.9555 23.4831 32.8614 23.3333 31.6667C23.4798 30.4713 24.0755 29.3759 25 28.6036ZM23.3333 37.5001C20.8944 37.4968 18.8123 35.7378 18.4025 33.3334H19.1667C21.6056 33.3366 23.6877 35.0957 24.0975 37.5001H23.3333ZM15 38.3334H15.7642C15.3544 40.7378 13.2723 42.4968 10.8333 42.5001H10.0692C10.4789 40.0957 12.561 38.3366 15 38.3334ZM7.5 42.5001C5.06104 42.4968 2.97892 40.7378 2.56917 38.3334H3.33333C5.7723 38.3366 7.85441 40.0957 8.26416 42.5001H7.5Z" fill="#729A1C"/>
<path d="M25.0013 17.5C28.2231 17.5 30.8346 14.8885 30.8346 11.6667C30.8346 8.44486 28.2231 5.83337 25.0013 5.83337C21.7795 5.83337 19.168 8.44486 19.168 11.6667C19.172 14.8865 21.7815 17.496 25.0013 17.5ZM25.0013 7.50004C27.3023 7.50004 29.168 9.36568 29.168 11.6667C29.168 13.9677 27.3023 15.8334 25.0013 15.8334C22.7003 15.8334 20.8346 13.9677 20.8346 11.6667C20.8375 9.3665 22.7011 7.50289 25.0013 7.50004Z" fill="#729A1C"/>
<path d="M24.168 2.5H25.8346V4.16667H24.168V2.5Z" fill="#729A1C"/>
<path d="M17.9297 5.77348L19.1081 4.59509L20.2865 5.77348L19.1081 6.95186L17.9297 5.77348Z" fill="#729A1C"/>
<path d="M15.832 10.8334H17.4987V12.5H15.832V10.8334Z" fill="#729A1C"/>
<path d="M17.9297 17.5594L19.1081 16.3806L20.2865 17.5594L19.1081 18.7378L17.9297 17.5594Z" fill="#729A1C"/>
<path d="M24.168 19.1666H25.8346V20.8333H24.168V19.1666Z" fill="#729A1C"/>
<path d="M29.7148 17.5594L30.8932 16.381L32.072 17.5594L30.8932 18.7378L29.7148 17.5594Z" fill="#729A1C"/>
<path d="M32.5 10.8334H34.1667V12.5H32.5V10.8334Z" fill="#729A1C"/>
<path d="M29.7148 5.77433L30.8936 4.59595L32.072 5.77433L30.8936 6.95312L29.7148 5.77433Z" fill="#729A1C"/>
<path d="M16.1602 4.0059L17.3385 2.82751L18.5169 4.0059L17.3385 5.18469L16.1602 4.0059Z" fill="#729A1C"/>
<path d="M13.332 10.8334H14.9987V12.5H13.332V10.8334Z" fill="#729A1C"/>
<path d="M16.1602 19.3266L17.3385 18.1478L18.5169 19.3266L17.3385 20.505L16.1602 19.3266Z" fill="#729A1C"/>
<path d="M24.168 21.6666H25.8346V23.3333H24.168V21.6666Z" fill="#729A1C"/>
<path d="M31.4805 19.3269L32.6589 18.1486L33.8376 19.3269L32.6589 20.5053L31.4805 19.3269Z" fill="#729A1C"/>
<path d="M35 10.8334H36.6667V12.5H35V10.8334Z" fill="#729A1C"/>
<path d="M31.4805 4.00639L32.6589 2.828L33.8376 4.00639L32.6589 5.18518L31.4805 4.00639Z" fill="#729A1C"/>
</g>
<defs>
<clipPath id="clip0">
<rect width="50" height="50" fill="white"/>
</clipPath>
</defs>
</svg>
