<svg width="26" height="40" viewBox="0 0 26 40" fill="none" xmlns="http://www.w3.org/2000/svg">
<g clip-path="url(#clip0)">
<path d="M25.6994 13.0544L25.7039 12.3403L24.9897 12.3447C21.5396 12.3663 18.696 15.1044 18.5035 18.5138L13.978 23.0393V9.14523L16.955 6.18824C19.8416 6.03608 22.1632 3.63242 22.1816 0.714183L22.186 0L21.4718 0.00444445C18.5825 0.0226797 16.1985 2.29869 16.0036 5.14523L13.9779 7.15726V5.34065C13.9779 4.95111 13.6622 4.63536 13.2726 4.63536C12.8831 4.63536 12.5673 4.95111 12.5673 5.34065V18.2695L9.74681 15.4471L9.7755 15.4253C11.9681 13.7616 12.4207 10.6073 10.7845 8.39405L10.3599 7.81974L9.79112 8.25144C8.08498 9.54621 7.43295 11.7433 7.99838 13.6973L7.69341 13.3921C7.60498 11.679 6.88387 10.0676 5.64184 8.82562C4.32406 7.50804 2.59073 6.77601 0.760993 6.76451L0.046875 6.76007L0.0513195 7.47418C0.0628228 9.30399 0.794914 11.0373 2.11256 12.355C3.36302 13.6055 4.98799 14.3272 6.71406 14.4076L7.20472 14.8986C6.82243 14.807 6.4291 14.7576 6.03184 14.7576C4.2325 14.7576 2.55485 15.7042 1.65348 17.228L1.28995 17.8427L1.90916 18.1986C2.66191 18.6312 3.52315 18.8598 4.39982 18.8598C6.17851 18.8598 7.83694 17.9337 8.7455 16.4404L12.5673 20.2647V24.7335C12.5671 24.7393 12.5673 28.0269 12.5673 28.0269L8.48158 23.9412C8.20622 23.6659 7.75969 23.6658 7.48413 23.9412C7.20877 24.2166 7.20877 24.6633 7.48413 24.9386L12.5673 30.0219V38.5893H2.97772C2.58818 38.5893 2.27243 38.905 2.27243 39.2946C2.27243 39.6841 2.58818 39.9999 2.97772 39.9999H22.523C22.9125 39.9999 23.2282 39.6841 23.2282 39.2946C23.2282 38.905 22.9125 38.5893 22.523 38.5893H13.9779V25.0342L16.5921 22.4201C17.6283 23.5287 19.0779 24.1576 20.6401 24.1576C21.8652 24.1576 23.0193 23.7695 23.9775 23.0354L24.5445 22.601L24.1031 22.0397C23.058 20.7105 21.4708 19.948 19.7485 19.948C19.5011 19.948 19.2567 19.9646 19.0162 19.996L19.4694 19.5428C22.9071 19.3806 25.6777 16.5248 25.6994 13.0544ZM20.6838 1.50222C20.3458 3.0781 19.0633 4.36052 17.4874 4.69856C17.8256 3.12275 19.1079 1.84026 20.6838 1.50222ZM10.0555 9.94248C10.5852 11.1905 10.3707 12.6857 9.51145 13.7344C8.98165 12.4863 9.19629 10.9911 10.0555 9.94248ZM4.40001 17.4495C4.04596 17.4495 3.69576 17.3978 3.36125 17.2976C4.04348 16.5875 5.00982 16.1684 6.03204 16.1684C6.38609 16.1684 6.73622 16.2201 7.0708 16.3202C6.38844 17.0303 5.42204 17.4495 4.40001 17.4495ZM3.11001 11.3578C2.24374 10.4915 1.69413 9.40314 1.52093 8.23412C2.69008 8.40732 3.77831 8.95706 4.64459 9.82333C5.51086 10.6896 6.06047 11.7778 6.23367 12.9469C5.06465 12.7737 3.97629 12.224 3.11001 11.3578ZM22.4418 22.3359C21.8892 22.6065 21.2781 22.747 20.6401 22.747C19.6294 22.747 18.6826 22.3978 17.9469 21.7696C18.4995 21.4991 19.1107 21.3586 19.7486 21.3586C20.7594 21.3585 21.7061 21.7078 22.4418 22.3359ZM21.4194 15.271C22.1994 14.491 23.175 13.9901 24.2242 13.8199C24.0541 14.8693 23.5532 15.8449 22.7732 16.6248C21.9933 17.4048 21.0177 17.9058 19.9684 18.0759C20.1386 17.0266 20.6395 16.051 21.4194 15.271Z" fill="#3AB037"/>
</g>
<defs>
<clipPath id="clip0">
<rect width="25.7516" height="40" fill="white"/>
</clipPath>
</defs>
</svg>
